<svg id="visual" viewBox="0 0 960 540" width="960" height="540" xmlns="http://www.w3.org/2000/svg" xmlns:xlink="http://www.w3.org/1999/xlink" version="1.1"><rect width="960" height="540" fill="#3D6AFF"></rect><g><g transform="translate(145 15)"><path d="M92 -29.1C104.4 8.2 89.3 55.2 56.2 79.8C23.1 104.4 -28 106.7 -57.6 84C-87.2 61.4 -95.3 13.9 -82.1 -24.5C-68.9 -62.8 -34.4 -92.1 2.7 -92.9C39.8 -93.8 79.6 -66.3 92 -29.1Z" stroke="#FFF" fill="none" stroke-width="20"></path></g><g transform="translate(793 241)"><path d="M71.4 -19.2C82.8 11.9 75.6 53 50.1 72.4C24.5 91.7 -19.3 89.4 -45.1 69C-70.8 48.7 -78.4 10.4 -67.8 -19.5C-57.3 -49.3 -28.7 -70.7 0.7 -70.9C30 -71.1 60 -50.2 71.4 -19.2Z" stroke="#FFF" fill="none" stroke-width="20"></path></g><g transform="translate(357 294)"><path d="M47 -17.5C52.3 1.1 42.1 22.5 25 35C7.9 47.6 -16.1 51.4 -32.3 40.5C-48.6 29.7 -57 4.2 -50.3 -16.2C-43.7 -36.7 -21.8 -52.1 -0.5 -51.9C20.8 -51.7 41.7 -36 47 -17.5Z" stroke="#FFF" fill="none" stroke-width="20"></path></g><g transform="translate(488 2)"><path d="M79.9 -23.6C90.7 7.3 77.8 48.2 49.7 68.8C21.6 89.3 -21.7 89.3 -47.6 69.5C-73.6 49.8 -82.2 10.1 -71.3 -20.8C-60.5 -51.7 -30.3 -73.9 2.1 -74.6C34.5 -75.3 69.1 -54.5 79.9 -23.6Z" stroke="#FFF" fill="none" stroke-width="20"></path></g><g transform="translate(590 502)"><path d="M84.4 -30.2C95 5.4 79.5 46.7 49.3 69C19 91.3 -25.9 94.4 -55.2 73.7C-84.5 53 -98.1 8.3 -86.3 -28.9C-74.5 -66.1 -37.2 -96 -0.2 -95.9C36.9 -95.8 73.7 -65.9 84.4 -30.2Z" stroke="#FFF" fill="none" stroke-width="20"></path></g><g transform="translate(63 403)"><path d="M71.2 -22.7C83.2 13.7 77.5 56.2 52.7 74.8C27.9 93.3 -16 87.9 -46.5 65.4C-77 42.9 -94 3.4 -84 -30.2C-74.1 -63.9 -37 -91.7 -3.7 -90.5C29.6 -89.3 59.2 -59.1 71.2 -22.7Z" stroke="#FFF" fill="none" stroke-width="20"></path></g><g transform="translate(957 480)"><path d="M46.7 -15.2C53.1 4.3 45.5 28.3 28.7 40.8C11.9 53.3 -14.2 54.4 -32 41.9C-49.8 29.5 -59.4 3.5 -52.6 -16.4C-45.9 -36.4 -23 -50.4 -1.4 -50C20.2 -49.5 40.4 -34.6 46.7 -15.2Z" stroke="#FFF" fill="none" stroke-width="20"></path></g></g></svg>